<mxfile host="app.diagrams.net" modified="2020-05-22T06:34:05.339Z" agent="5.0 (Macintosh)" etag="1c8B5KlCcJoI_uMfo63I" version="13.1.3" type="github">
  <diagram id="bRyTz8ofwUEPsJ_Ad-T9" name="第 1 页">
    <mxGraphModel dx="1188" dy="645" grid="1" gridSize="10" guides="1" tooltips="1" connect="1" arrows="1" fold="1" page="1" pageScale="1" pageWidth="1654" pageHeight="1169" math="0" shadow="0">
      <root>
        <mxCell id="0" />
        <mxCell id="1" parent="0" />
        <mxCell id="UP3qEvWzOKkF1f5YY75V-3" style="edgeStyle=orthogonalEdgeStyle;rounded=0;orthogonalLoop=1;jettySize=auto;html=1;" edge="1" parent="1" source="UP3qEvWzOKkF1f5YY75V-1" target="UP3qEvWzOKkF1f5YY75V-4">
          <mxGeometry relative="1" as="geometry">
            <mxPoint x="185" y="220" as="targetPoint" />
          </mxGeometry>
        </mxCell>
        <mxCell id="UP3qEvWzOKkF1f5YY75V-1" value="&lt;div&gt;&lt;font style=&quot;font-size: 20px&quot;&gt;登录Lis系统&lt;br&gt;&lt;/font&gt;&lt;/div&gt;&lt;div&gt;(192.168.101.195/SampleHandler/)&lt;br&gt;&lt;/div&gt;" style="rounded=0;whiteSpace=wrap;html=1;" vertex="1" parent="1">
          <mxGeometry x="70" y="50" width="230" height="100" as="geometry" />
        </mxCell>
        <mxCell id="UP3qEvWzOKkF1f5YY75V-4" value="&lt;div align=&quot;left&quot;&gt;&amp;nbsp;点击体检中心图标按钮&lt;/div&gt;" style="rounded=0;whiteSpace=wrap;html=1;align=left;" vertex="1" parent="1">
          <mxGeometry x="70" y="190" width="250" height="130" as="geometry" />
        </mxCell>
        <mxCell id="UP3qEvWzOKkF1f5YY75V-5" value="1." style="text;html=1;align=center;verticalAlign=middle;resizable=0;points=[];autosize=1;" vertex="1" parent="1">
          <mxGeometry x="31" y="104" width="30" height="20" as="geometry" />
        </mxCell>
        <mxCell id="UP3qEvWzOKkF1f5YY75V-6" value="2." style="text;html=1;align=center;verticalAlign=middle;resizable=0;points=[];autosize=1;" vertex="1" parent="1">
          <mxGeometry x="35" y="244" width="30" height="20" as="geometry" />
        </mxCell>
        <mxCell id="UP3qEvWzOKkF1f5YY75V-7" value="" style="shape=image;verticalLabelPosition=bottom;labelBackgroundColor=#ffffff;verticalAlign=top;aspect=fixed;imageAspect=0;image=data:image/png,iVBORw0KGgoAAAANSUhEUgAAAGoAAABeCAIAAABEqBZ7AAABfGlDQ1BJQ0MgUHJvZmlsZQAAKJFjYGAqSSwoyGFhYGDIzSspCnJ3UoiIjFJgv8PAzcDDIMRgxSCemFxc4BgQ4MOAE3y7xsAIoi/rgsxK8/x506a1fP4WNq+ZclYlOrj1gQF3SmpxMgMDIweQnZxSnJwLZOcA2TrJBUUlQPYMIFu3vKQAxD4BZIsUAR0IZN8BsdMh7A8gdhKYzcQCVhMS5AxkSwDZAkkQtgaInQ5hW4DYyRmJKUC2B8guiBvAgNPDRcHcwFLXkYC7SQa5OaUwO0ChxZOaFxoMcgcQyzB4MLgwKDCYMxgwWDLoMjiWpFaUgBQ65xdUFmWmZ5QoOAJDNlXBOT+3oLQktUhHwTMvWU9HwcjA0ACkDhRnEKM/B4FNZxQ7jxDLX8jAYKnMwMDcgxBLmsbAsH0PA4PEKYSYyjwGBn5rBoZt5woSixLhDmf8xkKIX5xmbARh8zgxMLDe+///sxoDA/skBoa/E////73o//+/i4H2A+PsQA4AJHdp4IxrEg8AAAGcaVRYdFhNTDpjb20uYWRvYmUueG1wAAAAAAA8eDp4bXBtZXRhIHhtbG5zOng9ImFkb2JlOm5zOm1ldGEvIiB4OnhtcHRrPSJYTVAgQ29yZSA1LjQuMCI+CiAgIDxyZGY6UkRGIHhtbG5zOnJkZj0iaHR0cDovL3d3dy53My5vcmcvMTk5OS8wMi8yMi1yZGYtc3ludGF4LW5zIyI+CiAgICAgIDxyZGY6RGVzY3JpcHRpb24gcmRmOmFib3V0PSIiCiAgICAgICAgICAgIHhtbG5zOmV4aWY9Imh0dHA6Ly9ucy5hZG9iZS5jb20vZXhpZi8xLjAvIj4KICAgICAgICAgPGV4aWY6UGl4ZWxYRGltZW5zaW9uPjEwNjwvZXhpZjpQaXhlbFhEaW1lbnNpb24+CiAgICAgICAgIDxleGlmOlBpeGVsWURpbWVuc2lvbj45NDwvZXhpZjpQaXhlbFlEaW1lbnNpb24+CiAgICAgIDwvcmRmOkRlc2NyaXB0aW9uPgogICA8L3JkZjpSREY+CjwveDp4bXBtZXRhPgqFdgE9AABAAElEQVR4AbW9eZBlx13ne89+t1q7q7t63xepJXW7JVkSrV1uS/KChTyyGTnMY8DxePGGiQDzgJg3BiLw22Zi3phgGANGMgMjIWNmjLG1Y8uSsGTJ2tfe96269qq7nXPPufe+zzfz3upqGYT8x0vdPnWWPJn5++Zvy19mHjmdViPn+O204/pBLpfrtHOOm8s5/Npc5tpcmMtcxkOuc46yXZS4/T6Jon6q1DE1/iOvmPb85P2ftvyfLOF972Q5t93OhaaW1Ok4OX6pl3NznSzX9p12J81abdcLVUhHD3Xk3LwgDDs51zbRyTmdXMvVEzIsHG3tnX8MRNfkt7l5931St0Zb10+W/j5v/pSPFpf9Qc7hGih127msdYFz/FzO66S5jutMdTI/5yVZznNzaZo7dXJ6amqmQ8o1cx3PbRdyHT/nZI7YUjSqBy7+z4LpCOIFSLsNczu82XbEz3rnYtgvanxH75s7bY7kp9/s8T3wXPQWNcIG6nPa9sGOLdr00/znOjG1hE5QKBdWbVxZLOYCN5eluQKo8OBcp+OZFtKAw4cn4zguFwaC0CuVQwc5Qnhtgw01ZLTS/B6a7OV7GNCy22KiDMTdV9+Tmbs2p0D7aZKt5YO/QS0/Xerk2mkraWST0xNe0RtaOrxqWdTq5DwHBsw5s51OCkCt3NFD49XK7MaN64f6w7wR5fdURC6SxfqnakGPr/6Zlxb46p/Jd/Hjf0IjXpxp0dVP2TtS+SRIqNVzJ8enJqZnlq1cu2o0BAdUk0/1fid34kRlZnx65xXbhoe6lsNUYyXIVo4CVVMBfUFQ7AMraI7YwIrbTxzhYpSoju8jvhStPG2nBdd3EPkPdnSlnn+ixve788EFXTmls1o538sNFHJrVwzX6pWzp88Uog0jQ6LGRYhQa2NjkytG1wz2O61UPCm1mLU6WQfzIgvT6vDrQFGbxlJm98iJfg7d4MDPrXZu4YgGI6eOoG6OrbaKfJ9jyzxtq1Mp/4MeQZkWfPDj4vZ/kHM3a0Re22vl3DQ3EDm7Ll0fuN6h/UdAiZ+4L/JzjUajf6gEfwRerlpJy4VggZfQfUYzd6UWNFuG6+xRPMc/IMT0kChCHGrP6R6w67KcgCajMhl1igvQO+/91Vv0Wcs8wdBx9U8cHVO7jipmsX795855vrj9/+x5gNvRzjpNx/ECeM13nCzLzVXqtvUSkwQmjDoOpsTJJe1WUHDTDqxgGE7ck2sbUsVZwuDCz3A2l/S/JNgeTXUivYVO1U3Hc52sCWspQ9YEnk47yzVjKpECJo+Picok27KJSIrrcuS+57h0Z5pkZOA/Uz7E6JH9cYfu0dUHPtpGLpTACXfe59fuRO1O2HGDlGokFjkvPzhbbWWufDg8GJEq78QwAwfLLrguoJYTw6h7Ac4mrhYnihNT0QGO/BPeiBtpvhBkacv3vXa7Q2n1ehqGYRwnjudwB/QoOoz8JvbfDfDWq5XY8zz4t4X84xulvKaGJEnmul4+HzabeD+mmXKpDB1OVxqMJ2DbdNHR5rfELT6a1oow03A5Vaau7h17f/ExwzcyGKCCTJ/CQ1FT9kKX6ET1qtcqYGPUwDY9D82mk6mB2hCRFuDwzDy3MHN1IYmeLOtEUdBoJJ7vJU0YGibykiQOohDOqKeNIB9lbfCCtaUP8dWLxahabQRB0PY6USFooxfpXXzNtsAShE6u2craIORBpMHUyKpqVhvVHhey1E6dL06uTOA/ktDPvGS4VwbNQK5O/qdMHx0KxLxATsNI4OSmGX60SvFttR1QMyXBaHqAlUAkJbU8pw79p3uUpZKMMuy1zbbcD4JanOQLDG+cWrVRLBaTtOmHQT2GswLMU5LGmeE71/f0c51aPS6UCq20SXlUFrcwVTRC9tfzc3AiV4VCmDRbZOYRQqY61aXmVFduqw0cF9DUuUETNrfnC0cLsSiBAEu23tMl/4x+0vl7fngCbseXecScmbJ4JesVLiakLJQSLME5phXxYhRsbpMfME3JMoVkwLPQG6ZGFUabpE3Il7YjP0rjZpqmpVIftgiBpZ19xRJPmy1Zp3KhXKlUvcDrtPQevZqmsHauWCicPHW2r69vsK+vkaY8SOK0WMzXaki822w2wzAvVhShpjKDoyFcvETiFbXenvCHhnZzmkd6opc5oPv11PCFoVx6j2s9458tZ9Gx4yZSjQxvjVn0KYCRZbsly+tIa6fYW0ycqZ0qBGPLOCMql7x6YCoQcDI1th7umtRrpuQXVeWHoddsZmBXrVb3798/NjY+Ozu77dJLdu380NzcfBQVUsxIx0GvBZ6HncUb+vd/8B/nZqaBAARv//jHL7lkB6w3N1enfHGp45lXVLvpzoUjz9tmEKZWIeEcZXyMz4h+wKapvb07No/RSpRJafAgR8uHEGjOf+IIFOobUJARlRRLFaJdTGvQfVK+3HKNj0Dp+GaUix4iC3UbjDTktTXJnvQSOehkKwnoGiwCrAuz9PcXzo1NfPWrX3Vdd9vGLYP9gw898FfHD5/45F2fiuMmzaTCKIzgx4GBvq/ffz9wf+lLv8N48ZWXXv7TP/2zT999zy233tBM2vQH+Q2RlptE88LP8peBCHLUEAFGG8zR3Lfnuo+h4QhjZHJrLXfoCDWOFLswMTwpRrFcaY/tXAEHQVpLFYgD8RRgeUMFPEnhAqYHj0VXre0CZ7Dikr/mjr0vHrSJYqXpkVmOsF6SJM8889q3vvWtoeHB3/u9L3lSvXIsXnzxxTs/8clWq9VMW2jGej2WdmvnyuX+wwcOjp0b37pl3e23731z38EHHngAhr300kvXrl1veLpNp5sGmDbblotaYzTbVvl1pdjKMkdYUEdMkMkvf1+sa0vQAIonMAc+ErgabKDOIHjxsUXchCwSWBkamiF2AUWT/JYTUnDdd2MP/YeWUjchM7hnlBqIY+lDSuA23eQ4LY0CA98D0VYr4wZ/4TLci+npuSeffO7ZZ3948NCh/v7BTi588MFvF/vKx0nHTnz0ox9tdrx62ony5bl6nM8X42a93szd+tFPcv8Pv/bnpQIKrlOZmy0W+x588BuDA8M7d122Z8912y/bCkejDcOghJ+Px4Xrg6MDu7fahN66Hoylh2O3f7vs0r29IEi+Mes026JE642/K2glyqgLkaQT0ZzLhRooYVm9pptGXAFlK/bcpliJGCnl6kTJQEtWIANocJNCoAwxPehzJCe5cTXSNCEbJ2SgOt/3n332ue9+97uHDx/u6xu4446P7dmzB2F855134rS5du3aG2+4afXq1XAoVcKA5Ecw+/pkSTi/5567b7311rGzZ+DczRs3YC9efeX155577umnn3nppRdvuGXP3r17l42Mzs81GPgVi+Usli1OswzXEupo1eJkqLYt7yICPxhCxIxoQjLbZsORhpN0TxlkDSSjhlDj4Jj73JHTZJLQ6J6oTrnNNvEWuNkf8NEoAcZdKqNvKAHnAm73vDhJAp+hAU/bIALr/c3ffOPRRx8Fzdtu23v77bevWbsevUZNl112OWwOjlgh7vh+KLGNG1gDeDZJmo7n4wRMT1UCP9q0ZStd0s7SYjm4+bZbP3zdte+889Zjjz/62KNPvP322z//2Xsvv2x3tZZkkhGViZp1XL+nZLpU8OeCXlm4Jw4xSfBBjtXrhheELCiKGEOm6BVvKumO9B3IAAD5GE5ezOuCj+ZYmMwbnOoKglFpMsG9DFKSTifL5HQoB4LeTAYHyw8++Nfw3dDQ0Kc//ekbbrgpCv1z56fK5T5JXJIAn+8FaQvNiAJ2KpUa7cGbAyjYEBkkZU30AGhyoPCO7wZJkgZBdP31N4yuWP7EE4+8/PLL3/zmNwcGlixfvqbRiPExaQPDFNtgjhclNU3JNtKeW0QgCweXO3S59Bl3UX7g0lVllu30hroInjQ2RWNwIYhDJ+T1pIuvXAH7qvw580NuQe29SfJsegK2xDtJmhkWIAjzx0+ce/rpp+Gpu+666847b5udm5uaqYSFfLVex4XBjYFdjU+EqS1QtRf45XI5bjTpSa4AEZTpI/KkWTtfKPlhFCep54eoi/HJyXXrN3zuc5/bvn378ZMnvv/UU+AL5TTOZygvK5vRpws/QwvW1PxEp6UOnxuw6Bed0IXiA46ILHmwL+YnZsHaiBUZlonnLCDiJC50tGILevKl+KMz/tneUg79bBKIUGjKQqKNS0KhnLkOBOtN140iH8+Oy+Hh4euuu25iooJiwuML/LBQKJn2dcAafec6KDsK4yW3qZGsi6SDBY/oSYrN5/O4hJhj/JUwXwBKXve9cH5+vtRXpnCYcXx83OgKNZJK7YsiopssH3QvDJd0zQjnZF64o3OTq0dslzp7KbHQDfjEgGhOBWA36Yy3bQld3Wce8UC6j5ZraC99IAsitWo8D9XoEhAk/iGuoUnEApYtG23ETQJ5lWp9YGAg53m1Wo0xF6iRR96k8TtNG3KyGGk7yZqlUqmRNFGjdDlyamhrkQemkwB33Kyd+dTvYhk0HGL8R4JtaQm0wba0xZHcE5oUatzqHnsuhWycYSULKtpOBKPpIMFIH0LMLbiesgwgvRL4C5uKZEmwaiOj4UaB0uMw5SYj/0zVuuCxwdFR4NNGQOFBpnvkJ5kSYBcKJhZg6GE8j8qD9YAM1oiiPBq9kC9SLDCJ6aTa6UqVDAMyeKCWQqFQq9WBDEQEmcc4qss4BjvUK44erql4AGFnKDw+Pqmy/IB3KYds+aiILVItJAsZxwXshIgIFwrmhxemSwRTaAhK+1T9YYjmaE9EqUniHCPjQkMKDXZglKQykW7Vi+WlGiiBACSJABKsB17UI+GFewSnKlCVXPKu46C5EH6YhPeZHR4cHMZfmZiYwqpwRxDoGbwlXmP4TyOkBIy2U3kYXCOwhBJomfoj56RUb1La6jCPIKcEk5KCo4v9OXv2LJwr7s5xGRPlwgBjtamkheYEDfjCAiSO69Hmk0ESROJA8QqdOG7DKB+cB6kVcRCaVyM7U78lU3TrXYynWijegXTIAmPT5V3dd8FxgWIoUFXiahOAEZFqmmqm9J65EUegwj0QwQsr9g8N8nx6mkGrwhKxMHPkGzYlj2pYN6l5Kl2J8rlvOqR7R3dpLpXwXuSDbBt/UhzaSWam5zw3GB1dSRcgFp7jYbgwSgi218EH4lUiRBwMVPQ+V77fSIie8dcnjAGInMAbTeN10itCS4IhFpH/2GuYsRy2kSpH3oYBFiaAjcS3i3icOk05ZFQ5VkiVj5YZ4o0MQK2VAjMyRowsqYAYRRH+MArl4OEjxKZsz9M4HqV4Joy5sI7MmqCPEQG5T+pPqMzIYYQaCpAIfuDCUQ6J4bh6vU6boHlsbGy+WokKhZWr1sA4MmgdpwF+nVySUUuHM5XAUbMlOV1Sl4EJMSMIhBoNPJ9nbQJ1GjdluFRZ0iTEjRrlh6WStJmfcdXUu1bs1c09KRYPdlNX2wgIAdpNMhmgphuIs5hEMkEedQJ6nouWZspFp5pIQ1sbN27Ebp45cwY6l4wsgwNgz0aS0u/QQF+ZssVrvbptdXRb947ta7KRAXYTm2Qa0qRpFpULx46dYHCyYcMmBoJEEPA72xyyThYACIKr5pujHFJKgAKOeJJYFpgFVHCyeCBZpGdoR7sdMTj3iAw1AVTVmZFct3m2MDETpWObDD4SX70oRWbaKXgvjDpEZBc7GVUwVEsEJd1FP2gALMbVOxp7MSdBRzNYrsdrVq8dXb7i9OnT+/btu3nFyiRuwBe0lHchkt4VfeZnPFaLnRpnSut2I+c0iAQEUEXokGoRuvn59MSJE3TDli1boB23hhIVzRfLKLsZgxgEhZ1ayMCLYxTmG9Wa7zo4RLSAqkPijJo6NF5tknaYPzMqGGb0DILIkOo3CsBiZEhW18ATkINKoNEWGaog2eihJYlXyApd6iej8IAPJLhBiwxx5h04XWNDbrl+mjb7y+UdO3YcPXr09dffvPZn9nhBiPdWKBTrjYSORduqSHG0KQ0STTIl2a61p5JozohDk5mENR8a7D94cN+xY8cYR2/ZvA2pVMQXlUcYxPNamTwe+TEGL9MPEEDbdazMzvUXy7jLTcY5sHHSTJMYf8oJ8EkLuJQeMdh8FBMGx4VS4IUG8K6VFbhJrbJ9LJUHS6N26QZrSXpgdDsfLAyRyqQT87N0imu7avGCwe4+Am85bsnOnTtHR0dhk1dffdWCkdKngOa4ViVJYUnrW+eATrKcrrpIMmiCWD8NkFn4kKYAxJHR7vTULKy3dPkyQKAxpoXSU3A2XLhwpCJTgqBHy5YKxUatdurIsVNHjtZnZvKuy+KJyPGGi6VmtTp19uz5U6dmJqcCxy3lC5JiU7vKEKupcPtTyxcl08WWRB178BkyDOJWuu01PdvtjYXnnPAaR8q06hk2WbduHQiC47M//Acu0f6YXSuGi6ruSUWvhG4dF//hLYIxvIVrTcDmjTfewLhfuftqBjPcBz95D2JkyJWsdFU+l/SBjt0uOXfm7KEDB6Mw2LZla+gHc1PTKSPNRjI9PoHxWrdqzfKRkemJSZYMUKql6KKGGBq7901F9il3Ficz7MZp8j3WWMVMv3aCrBNmTJ8TWZJxoIOt/KFlmGHCV0D9wdrMuwcdL4pbnhv1z9ayPTfetn7T1mNHTz388MNOmvidJGjFUSfGmdRwmqhiJ4xbTtJ2GbW2cKfdQpIqeIeykh4FGcw6fp4ToDHDqDNx/tDLz36rXTn54St3b9+2c77mN91yyrowH+dbMkKxuIt53BsQTZus1qBLvWarr+bVDo/Nnjq3e/vW4aB1+O3nm+3ZsCT5zDtRUFjS7gSnjh+ozJzevGFZvhk3Xju+shK6bbeGjckRzsRvx8mPGJez5IK1ZVjRtI0bn09aeSDC5XOZ2TEoWhmHX43WMwirY+UedjsD2jm7wDnd2xf+2PyDS4YJVfX397/00kuPPPII+gXeVMSFQIsxI5SAKsRvTTKEMsFoR3nmMHPkgVuDKKJVxoeIS4WgXm88/J1HDh05vmn7pT9z883VNO0aFrkVDCkZ1cBqjJ1zmGJgZCgidkQgHDdmgt5zt156+cmzY8dOja9Zvy0f9dUb2fnZuVOTU9OzM4jn6OgKRp8H9h1cs2Ydi1COnz1NFyLIcnxgHMw1uqCXzJnhd2OUub3AgIuElxcNcDztCrzRAr1CFv6qO6yPpmz8jE2oVurrNmz6zD0/X8iXfvzyKw8+9A0GJFGhyHDCDorpD5AiQB2ENK/TaNSY9sXFIfpEDxFlIZSAqxRGrbn5yf/xjW/u33d03cZL7rjrHqfcN5s1UfmuxquBy2i4xQwNlgsxaHv5IqKAg8CQCdqbuXYj9AorltU7buoUVm2+fGy6eezYtB8OL1mzefSSHcXBoWqtcWj/ofWrNvht59ixY6NbNsw063G9EaCR8bQoC45BGKgA3WpgschwlGo0ySIov8/yoXlGsAH7IDfRmCFlRIeRg4NcQDSCsaH2ZckbOXgfP0bmoLN529a77777sccee+6HP2KkdftH71y7ZbNbiFD6DLZkOVBtDY1q82GJ/ldj5VOnuN95sjXT11954anvPzM7Wbvi8t2f/Nk73ALygiHFjLTkiJIYbTg+YctmrpFlqddm+WIuwsVjMOISRsxqWQvz7eWcwdGVlXqtmvPX79hJq+fq9VKYbxeCZYNrp9P6vjff2bJ12xvv7F+6fG0n8LDUS/sKDN80WQ9N4IiSkV8t8rAREE5D5e0Kia7p1RIhey4c9CKJrLgU5OSUptMPisdJ48kl6L6sM/hU5eA+UAMswGRubccVV4yMjj755JNvv/3W1+6/f8eOFddcs2ftum2RG4ShJDSJW4Uw7KBNmGX0WkHEQod2pTrx5uv73nrrrdOH9udLgzd/ZO+NN9xmF8eEhL/8SEaXZZ1EWFptjzUyQScLI2YcwrpC/wlWuJHA1cQBYUJyJHgrzCUU/IH+lacbjWLIFAsWNknzPGuMjK44/tZbQTsoBoXJyen+wcGJmYml2YhBp2WGI8il3IMu24hYKQdINgT34NOVSeYxWeA8EEKJCCcN1oxDZHwgXjWI9bDnEfWR0ONRPki1yqCvVmv09Q/ec89nt1+y48033jh08Ef73z20ZHj00u07NmzYUCr2ERPs7xtCSzNimZubPXv+xLET+48ePTQ3NwcPXrHz6quuuX7F+u3NNNdsEBwLEQfGWflWO4C9GI1n2IcUEusptkftbMGZxE/zETyJDWF0lkfjElOIY1gS1AtyZJkL1MRWJeePlPL18/Wcy9IZuF/T8DArmloGn1EmGBCXgZeNd0WNYhyJiVakGQEgriqqSd2QgdQZrARwVrzhB6MVhaQJsUlMDb/RDcBFO7jiAHeSOEf3YS4okSkInhCmu3zXh7Zs2Xbu+JXEYw4fPvLCcy88/dQT/QP5wUECJ1iLwux8bW6uQsksKFiyZOSaK2/esePywZWr0dqVBgHRdikkbsoYDTiyYUqemMyxQrZSKyaMC910sOD1548tG07bTrONH8wAC1uclpysVK2XJifzjRgvCt9hoDhYx0xtW3U2qWSlkelqtRw33aDYdgJ07oaBpWOzUxH+oKa4NW3IwBhhBUhiE8AibgFFoUkSGwo5UAA+Q72GEDoR8FJ0KDLUsAbTggeWFdrmJVQiZwqU85e7mt3Xo3aUL9G92NMgyMNWPKlWWP4Tbtpy+ZZtV8zNzM7MjE1On3z37VePnzjkhdFAX7B8xejlu65cvmzF8MjS5UtHC/l+lrvM1GJFCZHCKCA8EHrtotsewFQfP9Y5e9qbnCxlnSIo0UtBrs3QdduagdGVUaE/TmIvzRWzrFSZnd//dliZg7uIvnq4Yo3juNHTs6dWXbZlMmn2F0qpVx9Zt+742JhfLHlRNDk9M7xxFQvqYD2hBe+iYtEBGgKhA82wVYYKDQV/AFbXY2HQZqCRzOLZARsaiQiFCcHiByCW4jsAQr9JTxroZV9ADdzAl8TasgTRkF50FQqhSCoz4by5NAnRQUG4av2W9Zs2vLP/YCONbrzu5lv3fgIVL4OjgWcrzlqNep3lIm0fr0PLvBLC8fmAdYAj+CInD2X79i+Nm0uCsJXWoyBPWIbhqwzbm0fj45PDV+2Mo0KeZfynzjsHDq6Lq4GT+E5KB3SatbJfjJNaenAmNzkzePudXtbIFYrtfInh+eDy5SfOjzkYrlIJ54huY4iK/QAVKQDxHgMnTVFAObQrBgImeEwmLQivHlrmVA/gQ4GA8Q3ErcpqgghGgCnYWBS5RzrF8dX2A9sj4khyqypzho+RobKCkGHRocOHjh0/NzC44rIrrm3E6ktF8u24BuxpE9PgyI26iZl4zJpTZsfJ5Hjn5KnBNB5FvRLCKxca2ETCsE6IBlwTt6Zna1P7Dqzavm3+zGT10JF1SVrEkcbC55rlwX4Zq3PzTPsvC7z49Fh84NjItq3Trj8PfQP99G2uv7xkST/7gnAkTM1iFmsq+GO1k3hSfqVUnIDSAyWtsLIJf8XMp8MKsBQ0AxXMJc4jD9IIfQYWri760RXUimYQbBcnWJwlPBlihevhBmdOn0vq8fo164YHR2JtEIGvFSAwHIyZVQf7nVCOvx+5BIuYCM1ypZPT/pnJ4TyB2HjaD6ay5pGJMSLVS/LlFUuWD6fOQKcdnzzb50fJ5LifVDqx5gSYU4l9p7hmdW7FKv/1g7OHj9NXRGlaB4+XV66b6Yvm2dBSiGJGFsWwr8DoA7/RYeKEBuEAAhtGCbrkbpifnDmiE8Y5t8wBrT3uE0hSjQJWCThUhDw7zAlP4S5ucJ+X+Kf8skKInrKjWaUVwRddaFc6CUiqx6KRQy+0spmpCZhs6fASKXmJrfJwIvBVoGlgm84jam2O6He6carSx4rE0D3dqDxz+GCtUBxas4YXz07NvHDy1O3Do+tXrOqr5ebffZcg/wCLMNM6zO4zDkmymTMTQ1E5F7BHhan1ZtmVwUrOTzh9qxmyoDoQWDyn+WYSilDAAS7cHl1wKhg4MZKFoMEmEhXsiG36Iu6zZgXFCLHaGyCixLjUyyPRijEx1OpoUFQmytHP5DYPNCQEboDs1iG+NUkeBi5Ch2V/rSzuoNNRcZrhRbhpNkpF5s10MHVpWp2xBYkQadjXd8Cd+/a+N7fecPtV19wQlErMW+Ya8Vuvvf7X3/vv1/bl9hSGy00N+rJaBcrjGot2CuWOWz10vnJ6TjFPCmFVrdvJB0k8PeHnVoWer418WqjZIj6EejbdD1y0XQs1SeAAgCDQIxlahJ0lDTy63CdA1PkCQvzHP8qRgdFNQLJHrgxQApL8hr0EU0+V6r5xmuQO2tkUBQF4CZfd6RA7AZdqrWY6l+5g1GEWbirESEvUWLGuVvpSZ+b6GtvSBuY0Xz15PL9h3TV33HlqpnZ0377TZ89i5e786B0TjWOvv/TmzuXFvoSXGO+2MPdt308bTZztobabzNVS1jCiPdAkmJIs8cVfXKj3qBSzFcgDEXDQCgkyuxBiFD2EQ6u4Ct0maJQgWbctfAZbC58WYVGyxnkamFKEeA9uoizZHN4w79lSlENcJiaxHWIuKc9kNOXSwxHzDAQz2mlxYIBx7dT8bJsVXIwOpF9gXXnDwouOzXkh/jT1hMRCaa0TO8xJBmm9Njs7t3br5leef/6xZ39Y76TVZjw4PLx7dtfmzVt/8NSLnSEzkcOyQeYJWEJILIjVCjHDRML0rQitxt40IvztdsJasIFiHcbCsrNTkmUKaUu+gbrdoON0iLuIHIiAE7v4cQ6VorRLO6RexH0GWgogB+2WrSYgAF+YMAa3NTCjkK7LYmqiUxYlU6AOi6HEmaJEYnhh3luxZu3g8NK5yvyJU6cGR9ZADMZK6oTCjIwjZUzfyHXNM57I4jbs0iHKmdU6Q4NLXvrxj2OnnC+WNm/bvnHH9sGlI8VS3/GDb0RmOyimK83SZkxlGOVcI4nbzURxHIUJY0IyhCvkkPlOoZSH9cRRrLllPpVlZmzckHoXoyAZYkvDKmIPAx8kWVzeCx8SzzJ42DGm7HaeaEbGxD0FSfAphPkBuzBQxRutJvSFo4CSVlmsDnTvPQn3JESxpY00GxgeGl627MTRE0cPnLhh+ea5alOhebQqgus7SdaAEBAFoKlqoxAV/SyZJAJ5xZann9x3JmtMu+1gmbv3Y3vXrdya0dyOf+D1I52Hv/XRFRuirJ6kuVKWz6WdRidhaQ1tJyjm1pFHv9FyQ5+nuICzb+39uXTZJuaIifX7IZjynGAXjUZeZXYRL8yJyJKAdpoeM1KZcVCQfv7Cp77nsN9EL3QdF8uQYgPDVZgkqQWV0U3yb6VCAVS49W7r3Kae+tPVAvdxjtIgyssyZpa1FUP3yquuPXvq7NvvvrV6zdrRleuZL2M+yPUiZCdwIw1e20691kTemZEKHeIj7kuvvHTg4LsEXy9fu5Kw1uHv/n11+X7fyc9P1c6fO/+xJSuXBaWAPTbM0uNy0cudLG4246TeX+7D7tDwYlhA2OeJPA4MrVi1ijua+dXaJc0U4qMtNBoFpXNQEPk6lyheoLnLi/YGT2U6hJpJxm+R7EI/WFGNYcDuUxXak13zil40yfTdBSRV/QUE3U6SJuT0nIiRycpVG3ft/vDzP3r2H3709E033TS6Yg0aiWULRkPmHZxBZqzbGVPwXi4JOs3vP/PEu2+8uKZUuGrFlg1BaSBpVyem5/cfy9LOZiccXbJ8WeyFDQ/WBe4m2OPz4P92snyBiME0tp74YL4zUE29s8N9G6+7pm9gUJPF+HeMbdn4hN0z6KHzJapdk2BIM+diTEFoYKJ/jOqzZHMUfGhJkkVQkQXMBHqTwgShHokZBZhyyTM0SXd6CbDw7+zVBeBsNgpXPIP2svSC0H171+7rKrXaO+++/viTj1599dWbt1w6WCrDggSTWFuFiWa1f+C2xs6ceu7Z749PnBkaGb3+xhuvHl078ePX3bnxDcWlYZ5QC6HRzGtUvUaq2UdolLvBf8TpUN1Zq0n8SnzQisJjzaS6dMXA9XsmVozWqYbgDREw1saxA40IoIiDVwxdPerUdgOfTID8QYQaOLp2Y4FGsy1GOGjhm/Qp/xlzbsDRmzwzpSO5KHmAlUOiCnuI61I9xF+bLsDKNZaN0RUL0qr1hE3WOCVeVLjqwzcztfruu69+7/tPHjp8YNXqtcuXrS4WBvymFhlV5qZOHXr3yOEDhI7XbLrklls/QTThtUpt6c7rk77Dswf2r52P+5N6mtXZtg1W6nCIxOljCkJhTsiVOtWmEa9wvuPOXrI52nXV2OCyihdqbE5whiljDWhRyt1F7VI+itIbVuq6FzpHN0oSRSLGRlXJvHSzvdfvkz3CxFAWWgCMKZIiDEMKRPoIS2X5TjcvTha8i4/0oBQALoPHpplWVgjz8/X5Ur5vz417N2ze9O7br506ffzgoSPFfLFcGmTSnUhWXK3jWTPzufnSy7ddtnu22q7WQb2fcN3y9Zf25QcmX3upFjeW9fc142rBWETKh8dpovGwNBnHBy5i5rAYOm+/JNq9a6zYN80aQy+Ar+EkPuCAjHlhwCnqLwzEg1BnOAEKRLXhHLGF7DBUgI2FYpHY4ZGJXlkbsZQaYPkXZhL45jF9q4LFYEKwm3jrwqmpUCWZUsyJuQA7xBqHMy4S0WrhxrF10pmvJU6jNbJ8y/XDK2v1+YnxsfExrQsv9zP7ke/rH96wfvPQ0Ijv5WerhPJY+88QjC2Ezniz0Fm6vn9PeebAa5XjB8ottz9pEDTDftM2BfHpdmyH78/k8zNLR9xdV2er1k603XrLZUeHo/UwWsfEOIOVr5BNy4CRd+EGGmxVn8Ydos5QYECR6JJTekxE64FJi02HigBE4x6rhwSk1hMg8V3swQ4Dx4u2iMUFXTjXsJEyTBMM5hQbBF61PpePwjhtMJoN8nnaM1dJCA4S11u3YcnWrZdlLcIfXrMd4FXUG635hJVquK+h1sMxRceKSXYlO/6ZrDWXLy274spgeGDsyKF87Vg+CJldJRhCxUnOrwb+fLHsbd1e2LT13ODweeTYZakveBC9x19pIbxyAPHYMEAIMCuSmE01mBgGtDyD4gRQqBBlUnvG75WBsWy5AJ8RZLMmioAHtciD7Uq/4UTepyCKB1uEWsl0yUIngLDtNvNMAx7VZy6oFi8JjZT5AY4CMQB6z03aTe2S9PKaLu1osV6dxVnIbSOH0DGfZtf2sAoKqsw6EjhMPYr/ncLObTKG/upN3uqNjb43x46fjMbPLWW5npebYj3v+nXhtsvmykuqQcGEpSkDc4xbzQp1JrQhV566mMmYBSHSa7GAWkhG+uhATAL/4YrDgLjg0pK9JO7rJsm+GZnBPADGywzohQJsrUKNgJieEHxKvTdNB+miW67tn24Gjf7kWVOGcUR1JJonAwkh2pTCi0y6M4pjrS45GSiAFLEeJquNbNGMVINISmBcRevp/oS5NzfPzTXbd+VXb2wdP3zk9IkwHwxs3hSsWXfWz896xcwJfbbSqh1G9ECQyD+N40CtujSFym6q9eag1kCyuacWm5YbLaXnMp6ivMeAXfjUA8iudCCDbqSAbZi2HAoyWgD20ilPTHtQpRS+CEEYUOxpkr3dOxK9owewjCTzBSJRROmELuTl6g29p1lcEuFBGgtMcqpgREZZNIWaFMOGGI2UO52A5so/6XQOs+l1eMQfGmxfcTl+8Uzgx1l7LknTPC8QOaQySqY6IroZ1OOeq9conlbRkSQjpYYDuatkwREDkdSlGoTxlnQZXWvQM+2+yPLSmG4yTVQxps30lekHqOE5tw0wNqsqM5dmzaRp1XufpmqDaZEsORyqlqhzNCoU6CSOhLKM98F9bc3XWNigKedN1TM5KVLxUegLySP5OcyGBeDN4ESn1GmlhGhYWu2XtJBUhoHN2RRuuks1GR3TxYUqDCvIxxA6qoaklnJDGHMGJkZnWMK7xKrxNvW4z9BMRiElFjXX9soysBgTq8IjZSKZoxC3zKNojhJF227g3Dx12VeK/EIqHo+ZWkGXm3bDWySwNTxAZloMs/WZGRvN3OoRgQBcBxxdlnio89X3GXakw+pd2BH2DHH2+EICaIZtL3Qi1uEQdmDpBeXxNpveCmxiR4WJ67VYV/jw41KV69QQYyVYV2I4g51IUG6ay7siUMhY+kWs1cuGcGN2ycurNBH1p97A4uodI7f8oT0GOr25uJRFlwvPuxkQMqM/JIkmxKCu674rY6b2ibu4zT/WrRqAyCNqZOb0XCKoRnVbxRn3kTnaCKYwGYIcsuVLoX+QhQhYiv90QKviKKt4M6+l2k3oo9sIzqVZuItxEnA0gwzwH/dMCyQupsGUp8wcTa/r8QL3qSZTECEPpIEophopOPUAEixr0k6VYpIqXSioK4XmgWjuXbc7AxIKc6kXNErA9aErbPt0yl1QNESxBGvcRFAJ/1hOFsKcaX0BxbQVS3EoQKFCuFYLG8phAbbU8ke4K+RzIQGxWXxA9BRfTaH4RogK9QJkXtX3kBWLqbmGSylUV0bKdaKbJmk0JmToQ5MX2kyyTy9YXkgGKDqVE0kiikiQ6mDsir3k8QX4wYgXKGgBLFvoRZdtvnEi0aUgqDWMLOw0z6jOFWupq7khvgScOj6y22Ilreb2hSmVAK9mntH62F19F4J8HSfmxQIh/ZY2SkTMNSl+RokOowh2qyJCTEjj6LCoiB5iPR3rcfU5CrhY3Kh2cw4F/Kem9RI9o9t6qAaJ0Q22umkuexkVpNY5lk6rYVrmgyloZ753wdI7xUpFE6v/QZ/4mhSGox1ZkiTLlqqJsTlt1/LFnNPUAiqWSjRxREqBn/fd6U6br2SUGaWnrSoMziJ3/BWz+JvN2LECJWikIIyzBgPh/nSAxUT5ks+aJ5YtJIziHKKbXuSHtVolX6TzWJSRsLI2Sxi5RlWvzhweQkwwwkCAtWWqyJMfnTHZzrv8C1l80yqxqihm4KZeJ2DQVbliQvGM2IUkOLqn5ppOoM9SrTNnMy8TM1yykUcjf37iPhCgBBJ/xFy2H4RbL4GsLdzgr7t6Rzd5SwCamC5LdVhDzOI9Yk6sVsEMsnyE7UH0AoLE15+YcS735Rv1BNfc94juEfto+lGAL0ekwI9YiIW0sU4h1L434sOxdsugt4gsIZuFYpgyeSsuJoRjdkTD1sSrGgnbOBnzmvG4XEWemjbCNOKxVprghyd8JEWfioG3LDF6Kii5WgQYN0kiySQpDkO1vW8fLmS4ILz0BooRzjHSiewrj9V0ekdqm4NkhuIMnDRRlFhp5h7cxzL2er1CGWydKEURcz18bYL90zwqsP6s3Z6rzLFrC6lkJh9i4Olmkw28JfpXW8RZGc7nITjXxpp8M0sYj7Fxg0rMWJ8oiXaSwNqAJJWoxZaMiUuE+0C+ELGTtc3yDpQVc5DsiWH/BnQxRiN2Tdfyn+TZwEcVECIRl2YwUJmDPV8ACHi5TWbgYcSFArUA2RcuwCeMDD+DEKJKB1KQLVjKkLpUH6tmFqqi54wjaMqnODASAKSAF1vsa/E89hckbFSBM+qNesB+gyhqxFUmuT03ZDqbLfxZs8E3N4geQRXGM8nqCCauOzyFHeAkzWIWNsN91CcGZ29w2upTiJAoLGuDmYVhVpN9GnQG4kyTYFnJcYv4fS5HjyJxVIHIIYF2zG+ED1EUkwoV+E8vdpEyqMIhMA935VbxRPiYg3lHr5AuiKgem/e5a88xUQsnhhttKRx7P1njbqJ6koKmTjtu1AphUC7mGRZpiNlphXmgZgsK/lkWsheaD2cxYRhq+yXQFGBIFkcGhKn4mASsnRaiEJZhSbd2tMhZJoaCU8LY2Qn8QuhHlUqlyX6hpF4MmUepRF4a4u4l8x5TTO2447LTDUvDji1fW4dpA3usI4J97AuBF+B9zYLBE9BoIlLAygsEs3Q0d3BjOOlSijjws8ng1j0IPqsKKEZMJ94zR5CVLVz4dV/oliFuNMmIADdhPdiHotjwxOrH7z78d2++9drgQGni3Nk/+sP/9/jhfWUmJFgy7vvVeo0qOUHfsXx+fnb2qe8/UZ2bZCV0ns9epfPffOjrx47uZ3YzrtfIhl2hGfQZGLBgH3mkYr4bkTYb/8fvf+nZp58qoRa0P5vv1bAkOSYvEQp4hJE1U2nMuGFNClGedUh5Fv6JlcggNChHTTbJUmP5yaDGc9HIn4VE/3UZZnFucy7W1WM6uvtXLhMqhp9JnMt3IFvvXXWd5VDuMHFFq1B5rO9EwT/60ANvvfkqsZYVy4aOvvnaG6+/gLVDvLAbbCuXHmHnpL4Lxs5691sP/fkjj/zNUH+U1Oc6ndnnvve3+/e/XC6gmBo4LkCW8WG3Jp9h67BuiMhHu8lOl+rKZYNs/fjhc68F4QAb/phvIoTHsi4kVK5zy01xbLKQBYWMmtNK5c0fP9eYOc/76DrjOzABL+ccPcMPEixpF4ElLxwcxINCToqP3wIAPeHlHaQOBuSZLJdZcGz4GyyFWhdDyrAJHu8mW5i2g7OLIfDdcqHwvSefyBWCT3zs9rnZyVLe3XTJ5nWrR/tLwZKhwXKxiLFk2SGsbRqULR3qH1jat3Qo32zO9pXcwwf2sSPo2OF9bb47GAIBW4GIERcYU3NCxCBr1gqEmFuVVja/fs2ynds385XVQXwkN52fOcsEU7PZYLIcisynm7TvHGpKpeJLL7/46GPfIeQHvsZvgAD0u5jF6hy40N5ZjKA9J8/CTV6zjAkEMF0Xhi5A3WtkFqfeDGJMt9ADGFl5DHAhdxABOm5Rgu/kDuXaY+dPP/rod77wK1/YsH41k1nNRqWTNSbOn/nR8/9w39f+5E+++sdxTV/SwEtG2RUxJZEzMlwCPt9l4V7y8N8+fNvP3XP+9NlvPPjAYF8ZsxCwTqiZIpbElNPm/Nf//A8b9YliCZHku6u18eNv7Hv1Bz949C8f+vr/8/u/8YtHD7083M8y4XmzQZldJGz5Q9rjei6+Ye/eZ//+qQP734UMxsSlQoEi4ET9EOKedsc26tL4tRz5CzPhIciU4nmZaDFa3pJ+wfJybbuC18VtCm1jdnCnmfQHF8yXlj3Z18hpRwyLABSXFovhn/yXv8zV5s6eOfF//19fDr1gduzA0f0HKrX5DVsnyv0rNm3cwDLIMCz6TsiOnpnJU3H9/NjY8cceO/v3jz25ccO2ZqPxi7/wuUNHj/7+v/2dXbs/tGPHlfOVRuTn+R5MgT/5fFyf/8p/+g+DA+Ws2Tx+/OiSQvnHP3q2GtfYmgalQwP9dT5q5xcU9mIurp2Evlfo9+rVyo7LduZKS+67776vfOUr3334ewDx2c9+dn6uilOKTWM+S0PAHoEWDXGcOEzcolP+Q0DR8T3npQufEWmxMTyG58ylEU7yItKSXKNk1Qu4BhRi+NxCp9E5/jf8X8iH3/nOtw688tLgyuWrVi5fMjC8dfO2//HgyVxSTxr1e3/+XwyPrJ+rskcBr5iBWa46P/sPz3yfkUV1ZuKaD938kds+/ntf+vIv/E//khm481OTK7aMfuXf/869v/Sr2y/ZHQT9mGecj76BYGhwpFhYectNN4+OjP7Zn963csXQL/yrX2RA+8BD3zg7Wd+wbsfUDFPgEVaE7TUPf//b/X3R6NKlo0tX+PmBz9z1+ZPnjrPecM+113z5y//n5OTk5+79PHZcbgHaD4CMGRVSvWTUVTeKzHpNA+KFp9aFVF6rF6WPMO1GIxhMOVex5kX1gElWg8KJMoh6t9MplvteeOGFxx9//Fd/6zcZh+264rKP3HaTliQfOTy6YSPfivzzr9/P1OLc3DQfsZKLk6Yb1q3/jf/t12688frc7BzfaXr6qR8MDva//urrP/jB0y8+/8Ken7mhvHTkr/7bXzz40IPz9Vm2cLjMd5p5ieXLV1x22RVs7+XjG16UZxzM/tLJqbn167a4XqFJhN5ldSVufHLo4FthkH7n298cnxhLGs2rPnTNvffey9c5BgcHv/jFL771+OP3338/bCjdpySRBAcdTbIab0HxcaJROAndbZImEswNXdl3jGNptJOuzU0dZKOkEwxe4kNeEIuqAG7iiJ05c/Y3fv2LQwN8YqXDLoO+0sCf/ekfX7vnZ8Ynp667/qYH//q/P/fcM1d++KZKRZtyfUc7MNi18pd/+Re5cj+LnZ545Imv3f8Xb7yyr2+g/8PXXvNfH3jwqt03feruz1RjpJINSmEjrrhBnpZX67PHTxyI6/X5+tjkvuOPP9F/8sxJPp61buOlfDtsYHCgWqlGJSdO5icmz61e/bElo0tff/PNSy/dE7NUozbPRmvmW9dt3PBz/+bf7Nt3gOqmJqfldQMd9IosGU+DnTiJhB2AhbDQ3RiB0FK6oPtMNuVUZjPCsLpPsiushKQq0JS0cDRqwiBvXmG59qc+9Sk+SDo+drQyNzeydPixhx+hgl/5lV/5rd/+3/HvfvmXf/mPvvYnV+y+ulxewuw+G5uXDA3fd//9y0dHBvqjj+y945MfL3/7bx+5ctdV//m/fHXbjstffvUt1y8US4Nxq8LqgxqLobEhLX3o9Af7f3jo4MGB/uKRIwf6hoYnZ+ccr/DL//OvFvuWNZNWtTZbKuEbxbMz05UTJ0ql8qXbL3/4O0/87Cdm6XS0J2O+I0eOrFyxmm8eXXXVNZX5KnwnsRNRGvFb4IwgcmVYUuKI/TD21xAt8KzlFSomyY+zZ9gOQubyZngPQG3iRLxNQaZo4+hIqnWftQ90EV8YwU1bMjxy5PCxh+677yO33va9p34wPjX9+JN//+jjjyWnT/67L/32K6++OD4+hu16++03f/TCc1/4whfwb6uV5Iqd1z733CtztXNpu/LdR/4OB+Sjd95Rj9nqHdVjtvazrIKtWcHWbbu3bbvy13/93/7qv/7ih668Zue1N939uS/cedfnr9pzx/pNV0TFIfbJxc0Gc55YCW9g+XB5+e7Lrpo9M/baj59fOhjxvZkwir778MPnzo/RdmI8fBaBjwpDuIYi2D8MEON34+5xFDPp2E1WkC12PfishPZyXPxXvrFNvUIMml1MLbLKgTFhnpsxAl4VQ7H7vva1G++8k924zzz9LJqFaNUtt9zy+d/4NVyuxx57tFqt4OU88cQTP/fpu4aH2HCA+lGMYGjJ8ieefPiOOz9y9txJtilt234pIRdsLrrGDIrDWiO79rqbPvuZz3GviXfeSPgm2Mx8rVJvjbOordGp1c1EombOXb5PffXV1xFJDIPi7Z/41ANf/9qZU0dHRkZoKoPrU6dO8bUjPsJDTtSfJEwyaqg11EFvj+QeAlYXmiuLoE+MBWYsM2fMLCzgB7m4HTO0Z2bKRPkSnD+27jKAbHXyrIXLteeoD68XrjYf5BFzw78M7fFq01yUOIPxhHv9vffcffddKMTl/QP/7nd+9/IP37nzmptm5+Nd1/0SS3QwR+P1yl2f/0LgO5W00HGX5dx+Qnp3fuK28alJ/Ik/+M9/eMWuVX0D7rGjRweXLiNWzIcxbITC8wM2dhHXQYtkUYmV+HybAp8G9ifsQhyM4S6fyZmrh5/7pd9kZepMkwV66a0/+5n9J8//7u9++VOfufPmm2/NZVOvvvjMrbfsYTSTa7F5RrtQ8DuwIPCXSSIJAdTuFNwKrdVhdSUflmHIGDA0VbAPOIympCdbfJ+WS+JRBNroC/bp8bbMAqdyJC1KjETgOImtYqQ91Sc2lgEh3hROTE7llo3eetvesfNTcOLJc1iUs4zeJ6YmMzb44ACrhA7fEUjieksL8XBt2/P12g+f/xFfZiLy8h/+41defunHqzasP/wHfzQ5NXvLrXdcdeV1hGfoLribBszMVonlF9z82XPjQ0OriBpWanySkOXi7MmkeMZlfqXWGFoyEtergDA/Xx1w+/6X//VfP//88y/88HG0Kh+yo6LZuRqaAWJpgCJ1KCrDWcDHlf7BO3AcBtOoRc2WgBiLV/VpXNkHfYaTHzsU4S+mCjRDyEgVWYJIGVpmZqU+BZmJJBC64r50INcmyijYKNWV8LIUd76eslN0eq6OksZ+N1tVIlnE2Vg/T7wvTpqlvn4GUgQONHx1vInpqcnz56Hm7x59olwqDAyvWLXhkk2X7ESF9Q+gyApQCHQsrUjYLNdUFI/INgoKF3L27GS8BcceJmCdKEst9RU7TCg7XBGRufkavEDkdWDJSHV+joUiV197w7VX755FCohlOS4iXyh5fP+Y3ZasdDCWwOBnKIIq2sd0PUcesSsExACdD63QQ4BGBsEHX6FBtZOMUQxhaT7MaBAn14WgC4gppI94i/X0XNypLuMa1kS78/UFYuBr12/a+5l72Q+ZLxMHbvKVoTs++y8Hl4w2WFsM9DS6xseFWW6iKXOW6gz0Lbn65r2jq9bf+bGfJaLpOAWe8gimR9+hT4iX1BLkAIOPfGkQb4JflBxd/ZGPl4r9fAUV7c/sgmLQtEwhAQRI50y/scMTEjWx2XHZf1T0c1F+mOWsGBCMBotpCIzRqfS0rAXUCDszRwE+8I+W2aMYOWOBCt41nQOHyRxLNicVXHS/+a0TE1N+hSWacBr7F/nat8fGV3EXKJmstEu/HLpGzh5PLKdThxiSRIfHcZ0jcxQKK2lFJIzOZz5YHIUu56t/7L3Vah1kkFbCrQTZ6ZIC4TqEOInZa6GtpQFfH68xlmIBGVqFF1FBTI8QZAVEln8Ty2o26wP9JbY54ACZj56AkT6ohZ7GDlALvEb5tBOPnVgWXTI4MEAEl2kRup/7BAujYkEbnsFCCzbEChSiox1zUSAZmfIhQK2lqOCfEd8l+lBwZ//Vp9dHoIyOAz/UGxKGb0O5Bi8N9IwC0HhFoXXYVpOFGgEb4HpxLNjBRBGAHYng44XmOy7ssQBdLT5kiFaLeZcANB8UD4jLEfJEUPhFUQmRZrni7JyAdd1i2kZP8/VxzHCBubM4oQBi1+ydpu/5FjaCSP/SRD6tWJyv1Jup9vGyuV69bELfQK8IIZGxJjMbKCmtfpRdCKLpmTmEia8r4IRjr/NFNmGiEnwJsjQYdYkUix3ki2S5bSJZnKxVEQJU7GJ5iv6Ci1gxXi6V+D66KRqzRS60CSyreVG0p3SjMUrGB5LQKSHZdJU0gDqTMHJUjOh5LsSHNvKsmtmnkgfyWr2B8xyYzx8i47xlWsXzFl+7ZjxbKLJAnOpYjKBhuViaFQF8KgnpJQyCL8KgXgask7bTEIjQQXxDMOaTqCBM6J+ve2FXNOHWNN97R+7ZqgCgGsC1WPkbAYKfJ5ogEUe6mVpit4kXenEa02w7htJReg26OCDaUm9a+KBuAxjsFwgCjnCRDAd+bngg6i8RUSNUGvPxVYV0ekkiauQUltc+BXUCRUGdOYKcEj2tzw3AAiCDECFxHBEixsI8hpHBSHorzaCcX8TSfkb1JsVpVuxDhfEl2ADrE7Cs2wsQd0Gp2cduY5BH2yhgMghwSeye4a3m5LAXtMH0n75/BXSQpi4BU9rNR8CY6eVr5ZoMzAolZo66q80ojRZKaNVv5mgAg5+5wB/RhmwzXCAbbGHQE9OQxH3AuG5tudbE42xOzzf5tLIRViA3q/noAdMxMIPgNrt+4QUN6WAQqlQ3dTvD3FX0hZdhJB4SNRDH8G2vjPlv+sKUqaqVGnUGTHqKVLIVle38rBFIG7CwLVYEUQ6lUSOEIzZqFhoQD8f0v142/5Ai2I0LkNUNpIbPzbFAgxpxBRW9ouMlfLyu/ZNqoItPoPcRTZNUD/9UvTWbqDe+MUNJ+mojn5tCKsg9UMZRVgI+esZZNuo2c8uaufG0M+vUHeZXmabRRzgpGvurzqFEPuEPX2qqQXbx5G98cQAAAglJREFUwlEsbHQAR3tubtgD7+mmgBVNmlKlBZChI6AsvEI9SlqhSeI+VXDkJXPUmZIph7/dp05bysSUY3PaF20Ge7STNt0Xuzl5IutnMyy8Ym5o4pKTLiGJ04xwyp2wwJdaWUXApphAOzTJQS7fajV07cgKd0N71PGjienGfA19GRkvEfg0M6Xi9P9sA2pbq61p8bnlgZ+EjzUFdID6lSP/mXovOna73hbZa3cXO24aaroPe38u3JM71ktdoBeXZ1qonuumRfB1s/WK6tGyKDNUE/ZnLEDvY7BZPsx4Azcbywgi/Hy2H+EOcMZx40qGZkNhOy17WaU6x9DDqAIYGVbnPHG0GEMuwqJEy+i97hF5sMkK73uOi9666HThrX/i3d7aJx4bgChW/NtNCyf2+iJWNbcuyoAu7b3Ye78L40XZFl5sB3jg2pqEvOBmiQULnb6okwcxKX8cHwJvmm1nrCMO0ujZ9Gi32F5tFqQePr27F/9deIVsnC8+Xpzx/a4Wv7X4/P3e+f/tmcYihhbIQa0AgpgOo8SZ1itSsbxonjKvgVbV/8IDTBFnElYPDNDpyqQVBj/ZRYYjuG961cKnMhfShVeM4Pbud8GVOPdumb/MkRvYuwrLnNsMyndB9Lov0Z73cJO9s/jYzdr9QzsvNIl7liLbZNuUiwoMtUyZPDabYGrq/3ACGjr8f3B+bNbqlIi3AAAAAElFTkSuQmCC;" vertex="1" parent="1">
          <mxGeometry x="194" y="208" width="106" height="94" as="geometry" />
        </mxCell>
      </root>
    </mxGraphModel>
  </diagram>
</mxfile>
